<svg width="35.000000" height="35.000000" viewBox="0 0 35 35" fill="none" xmlns="http://www.w3.org/2000/svg" xmlns:xlink="http://www.w3.org/1999/xlink">
	<desc>
			Created with Pixso.
	</desc>
	<defs/>
	<path id="Icon" d="M17.49 1.09C8.23 1.09 0.72 8.59 0.72 17.86C0.72 25.28 5.52 31.55 12.19 33.77C13.03 33.92 13.34 33.41 13.34 32.97C13.34 32.58 13.32 31.26 13.32 29.85C9.11 30.63 8.02 28.82 7.68 27.88C7.5 27.4 6.68 25.91 5.96 25.51C5.38 25.2 4.54 24.42 5.94 24.4C7.26 24.38 8.21 25.62 8.52 26.12C10.03 28.66 12.44 27.94 13.41 27.5C13.55 26.41 13.99 25.68 14.48 25.26C10.74 24.84 6.85 23.39 6.85 16.98C6.85 15.16 7.5 13.65 8.56 12.47C8.4 12.05 7.81 10.33 8.73 8.03C8.73 8.03 10.14 7.59 13.34 9.75C14.69 9.37 16.11 9.18 17.54 9.18C18.96 9.18 20.39 9.37 21.73 9.75C24.94 7.57 26.34 8.03 26.34 8.03C27.26 10.33 26.68 12.05 26.51 12.47C27.58 13.65 28.23 15.13 28.23 16.98C28.23 23.41 24.31 24.84 20.58 25.26C21.18 25.78 21.71 26.79 21.71 28.36C21.71 30.61 21.69 32.41 21.69 32.97C21.69 33.41 22 33.94 22.84 33.77C29.47 31.55 34.27 25.26 34.27 17.86C34.27 8.59 26.76 1.09 17.49 1.09Z" fill="#FFFFFF" fill-opacity="1.000000" fill-rule="evenodd"/>
</svg>
