<svg width="84.912109" height="88.278687" viewBox="0 0 84.9121 88.2787" fill="none" xmlns="http://www.w3.org/2000/svg" xmlns:xlink="http://www.w3.org/1999/xlink">
	<desc>
			Created with Pixso.
	</desc>
	<defs/>
	<path id="Vector" d="M0 0L84.91 0L84.91 88.27L0 88.27L0 0Z" fill="#F7DF1E" fill-opacity="1.000000" fill-rule="nonzero"/>
	<path id="Vector" d="M22.32 73.77L28.82 69.68C30.07 71.99 31.21 73.94 33.95 73.94C36.57 73.94 38.22 72.88 38.22 68.73L38.22 40.52L46.2 40.52L46.2 68.85C46.2 77.44 41.36 81.35 34.29 81.35C27.91 81.35 24.2 77.91 22.32 73.77L22.32 73.77Z" fill="#1F2626" fill-opacity="1.000000" fill-rule="nonzero"/>
	<path id="Vector" d="M50.54 72.88L57.04 68.97C58.75 71.87 60.97 74 64.9 74C68.21 74 70.32 72.29 70.32 69.92C70.32 67.07 68.15 66.06 64.5 64.4L62.51 63.52C56.75 60.97 52.93 57.77 52.93 51.01C52.93 44.79 57.49 40.05 64.62 40.05C69.69 40.05 73.34 41.89 75.96 46.69L69.75 50.83C68.38 48.29 66.9 47.28 64.62 47.28C62.28 47.28 60.8 48.82 60.8 50.83C60.8 53.32 62.28 54.33 65.7 55.87L67.69 56.76C74.48 59.78 78.3 62.86 78.3 69.8C78.3 77.26 72.65 81.35 65.07 81.35C57.66 81.35 52.88 77.68 50.54 72.88Z" fill="#1F2626" fill-opacity="1.000000" fill-rule="nonzero"/>
</svg>
