<svg width="21.000000" height="21.000000" viewBox="0 0 21 21" fill="none" xmlns="http://www.w3.org/2000/svg" xmlns:xlink="http://www.w3.org/1999/xlink">
	<desc>
			Created with Pixso.
	</desc>
	<defs>
		<clipPath id="clip20_1987">
			<rect id="linkedin-svg" rx="0.000000" width="19.999998" height="19.999998" transform="translate(0.500000 0.500000)" fill="white" fill-opacity="0"/>
		</clipPath>
	</defs>
	<rect id="linkedin-svg" rx="0.000000" width="19.999998" height="19.999998" transform="translate(0.500000 0.500000)" fill="#FFFFFF" fill-opacity="0"/>
	<g clip-path="url(#clip20_1987)">
		<path id="Vector" d="M2.53 7.88L5.8 7.88L5.8 18.36L2.53 18.36L2.53 7.88Z" fill="#7572D5" fill-opacity="1.000000" fill-rule="evenodd"/>
		<path id="Vector" d="M4.1 2.93C2.89 2.93 2.09 3.72 2.09 4.75C2.09 5.77 2.86 6.57 4.05 6.57L4.08 6.57C5.31 6.57 6.08 5.76 6.07 4.75C6.04 3.72 5.3 2.93 4.1 2.93Z" fill="#7572D5" fill-opacity="1.000000" fill-rule="nonzero"/>
		<path id="Vector" d="M14.74 7.78C12.87 7.78 11.69 8.81 11.48 9.53L11.48 7.88L7.8 7.88C7.84 8.75 7.8 18.36 7.8 18.36L11.48 18.36L11.48 12.7C11.48 12.37 11.46 12.06 11.55 11.84C11.8 11.21 12.35 10.55 13.33 10.55C14.6 10.55 15.18 11.52 15.18 12.94L15.18 18.36L18.9 18.36L18.9 12.53C18.9 9.29 17.07 7.78 14.74 7.78Z" fill="#7572D5" fill-opacity="1.000000" fill-rule="nonzero"/>
	</g>
</svg>
